<svg xmlns="http://www.w3.org/2000/svg" viewBox="0 0 16.74 16.74"><defs><style>.cls-1{fill:#fff;}</style></defs><title>instagram</title><g id="Capa_2" data-name="Capa 2"><g id="Capa_1-2" data-name="Capa 1"><path class="cls-1" d="M8.37,1.51c2.24,0,2.5,0,3.38.05a4.36,4.36,0,0,1,1.56.29,2.57,2.57,0,0,1,1,.62,2.72,2.72,0,0,1,.63,1A4.67,4.67,0,0,1,15.18,5c0,.88.05,1.15.05,3.38s0,2.5-.05,3.38a4.67,4.67,0,0,1-.28,1.56,2.83,2.83,0,0,1-1.59,1.59,4.67,4.67,0,0,1-1.56.28c-.88,0-1.14.05-3.38.05s-2.5,0-3.38-.05a4.67,4.67,0,0,1-1.56-.28,2.72,2.72,0,0,1-1-.63,2.57,2.57,0,0,1-.62-1,4.36,4.36,0,0,1-.29-1.56c0-.88-.05-1.14-.05-3.38s0-2.5.05-3.38a4.36,4.36,0,0,1,.29-1.56,2.57,2.57,0,0,1,.62-1,2.57,2.57,0,0,1,1-.62A4.36,4.36,0,0,1,5,1.56c.88,0,1.15-.05,3.38-.05M8.37,0C6.1,0,5.81,0,4.92.05a6,6,0,0,0-2,.39A4.19,4.19,0,0,0,.44,2.89a6,6,0,0,0-.39,2C0,5.81,0,6.1,0,8.37s0,2.56.05,3.45a6,6,0,0,0,.39,2A4.19,4.19,0,0,0,2.89,16.3a6,6,0,0,0,2,.39c.89,0,1.18,0,3.45,0s2.56,0,3.45,0a6,6,0,0,0,2-.39,4.19,4.19,0,0,0,2.45-2.45,6,6,0,0,0,.39-2c0-.89,0-1.18,0-3.45s0-2.56,0-3.45a6,6,0,0,0-.39-2A4.19,4.19,0,0,0,13.85.44a6,6,0,0,0-2-.39c-.89,0-1.18,0-3.45,0"/><path class="cls-1" d="M8.37,4.07a4.3,4.3,0,1,0,4.3,4.3,4.31,4.31,0,0,0-4.3-4.3m0,7.09a2.79,2.79,0,1,1,2.79-2.79,2.79,2.79,0,0,1-2.79,2.79"/><path class="cls-1" d="M13.84,3.9a1,1,0,1,1-1-1,1,1,0,0,1,1,1"/></g></g></svg>