<svg xmlns="http://www.w3.org/2000/svg" viewBox="0 0 36.98 36.98"><defs><style>.cls-1{fill:#fff;}</style></defs><title>instagram</title><g id="Capa_2" data-name="Capa 2"><g id="Capa_1-2" data-name="Capa 1"><path class="cls-1" d="M18.49,3.33c4.94,0,5.52,0,7.47.11a10,10,0,0,1,3.44.64,5.64,5.64,0,0,1,2.12,1.38A5.6,5.6,0,0,1,32.9,7.59,10,10,0,0,1,33.54,11c.09,2,.11,2.53.11,7.47s0,5.52-.11,7.47a10.09,10.09,0,0,1-.64,3.44,5.57,5.57,0,0,1-1.38,2.12,5.79,5.79,0,0,1-2.12,1.39,10.3,10.3,0,0,1-3.44.63c-1.95.09-2.53.11-7.47.11s-5.52,0-7.47-.11a10.28,10.28,0,0,1-3.43-.63,5.75,5.75,0,0,1-2.13-1.39A5.57,5.57,0,0,1,4.08,29.4,10.09,10.09,0,0,1,3.44,26c-.09-1.95-.11-2.53-.11-7.47s0-5.52.11-7.47a10,10,0,0,1,.64-3.43A5.6,5.6,0,0,1,5.46,5.46,5.6,5.6,0,0,1,7.59,4.08,10,10,0,0,1,11,3.44c2-.09,2.54-.11,7.47-.11m0-3.33c-5,0-5.65,0-7.62.11A13.52,13.52,0,0,0,6.38,1,9,9,0,0,0,3.1,3.1,9,9,0,0,0,1,6.38a13.52,13.52,0,0,0-.86,4.49C0,12.84,0,13.47,0,18.49s0,5.65.11,7.62A13.47,13.47,0,0,0,1,30.6,9,9,0,0,0,3.1,33.88,9,9,0,0,0,6.38,36a13.52,13.52,0,0,0,4.49.86c2,.09,2.6.11,7.62.11s5.65,0,7.63-.11A13.46,13.46,0,0,0,30.6,36,9.4,9.4,0,0,0,36,30.6a13.47,13.47,0,0,0,.86-4.49c.09-2,.11-2.6.11-7.62s0-5.65-.11-7.62A13.52,13.52,0,0,0,36,6.38,9,9,0,0,0,33.88,3.1,9,9,0,0,0,30.6,1,13.46,13.46,0,0,0,26.12.11C24.14,0,23.51,0,18.49,0"/><path class="cls-1" d="M18.49,9A9.49,9.49,0,1,0,28,18.49,9.49,9.49,0,0,0,18.49,9m0,15.65a6.16,6.16,0,1,1,6.17-6.16,6.16,6.16,0,0,1-6.17,6.16"/><path class="cls-1" d="M30.58,8.62A2.22,2.22,0,1,1,28.36,6.4a2.22,2.22,0,0,1,2.22,2.22"/></g></g></svg>