<svg xmlns="http://www.w3.org/2000/svg" viewBox="0 0 701.79 320.15"><defs><style>.cls-1{fill:#fff;}</style></defs><title>logocompleto</title><g id="Capa_2" data-name="Capa 2"><g id="Capa_1-2" data-name="Capa 1"><path class="cls-1" d="M326.06,150.56a170.85,170.85,0,0,0,28.54-40.23V22.8L326.06,42.85Zm0,11.82v23.1H354.6v-53.4A150.27,150.27,0,0,1,326.06,162.38ZM379.4,0,364.46,12.29V88.16C374.39,61.81,379.79,31.78,379.4,0ZM287.66,178.32a123.22,123.22,0,0,0,28.54-18.47V56.79L287.66,73.4Zm76.8-61.58v68.74H393V11.31C391.66,51,381.3,87.41,364.46,116.74Zm-76.8,68.74H316.2v-16a114,114,0,0,1-28.54,13.46Z"/><path class="cls-1" d="M169,317.33a10.36,10.36,0,0,0,3.66-2.79l1.21,1.32a12.58,12.58,0,0,1-4.19,3.15,12.15,12.15,0,0,1-11.25-.51A12.28,12.28,0,0,1,154,314a12.34,12.34,0,0,1,0-12.33,12.28,12.28,0,0,1,4.46-4.48,12.13,12.13,0,0,1,11-.62,12.58,12.58,0,0,1,4,2.82l-1.18,1.29a10.14,10.14,0,0,0-3.5-2.44,10.73,10.73,0,0,0-4.24-.87,6.84,6.84,0,0,0-6,2.76q-2,2.75-2,7.71c0,3.27.67,5.84,2,7.69a6.86,6.86,0,0,0,5.91,2.77A10.49,10.49,0,0,0,169,317.33Z"/><path class="cls-1" d="M195.33,297.23a12.46,12.46,0,0,1,4.46,4.49,12.21,12.21,0,0,1,0,12.26,12.41,12.41,0,0,1-4.46,4.5,11.67,11.67,0,0,1-6.11,1.67,11.86,11.86,0,0,1-6.12-1.65,12.28,12.28,0,0,1-4.46-4.48,12.34,12.34,0,0,1,0-12.33,12.28,12.28,0,0,1,4.46-4.48,12.09,12.09,0,0,1,12.23,0Zm-.2,2.9a7.77,7.77,0,0,0-11.86,0q-2,2.75-2,7.71c0,3.27.67,5.84,2,7.69a7.65,7.65,0,0,0,11.8,0,13,13,0,0,0,2-7.67Q197.11,302.86,195.13,300.13Z"/><path class="cls-1" d="M225.12,295.78v24.15h-1.84l-15.2-17.77v17.77h-1.83V295.78h1.83l15.24,17.8v-17.8Z"/><path class="cls-1" d="M238.88,320.15a10.86,10.86,0,0,1-4.57-1,9.15,9.15,0,0,1-3.65-3.05l1.21-1.36a8.47,8.47,0,0,0,7,3.6,6.56,6.56,0,0,0,4-1.14,3.34,3.34,0,0,0,1.52-2.75,2.79,2.79,0,0,0-.67-1.89,6.82,6.82,0,0,0-1.93-1.46c-.83-.44-2-1-3.64-1.68a34,34,0,0,1-4.27-2.11,7.58,7.58,0,0,1-2.42-2.21,5,5,0,0,1-.83-2.92,5.73,5.73,0,0,1,1.12-3.52,7,7,0,0,1,3-2.29,10.33,10.33,0,0,1,4.05-.79,10,10,0,0,1,4.7,1.14,6.84,6.84,0,0,1,3.16,3.08l-1.21,1.36a6.18,6.18,0,0,0-2.7-2.77,8.23,8.23,0,0,0-3.95-1,7,7,0,0,0-2.77.5,4.15,4.15,0,0,0-1.74,1.27,2.62,2.62,0,0,0-.59,1.61,2.83,2.83,0,0,0,.53,1.76,4.77,4.77,0,0,0,1.47,1.23,30.78,30.78,0,0,0,2.89,1.38l1.87.84a20.89,20.89,0,0,1,5.26,3.23,5.1,5.1,0,0,1,1.71,3.89,6.34,6.34,0,0,1-1.05,3.58,7.15,7.15,0,0,1-3,2.54A10.41,10.41,0,0,1,238.88,320.15Z"/><path class="cls-1" d="M269.28,295.78h1.83v14.28a13.28,13.28,0,0,1-.9,4.92,8.11,8.11,0,0,1-3,3.72,9.17,9.17,0,0,1-5.38,1.45,12.48,12.48,0,0,1-3.12-.4,7.56,7.56,0,0,1-3.08-1.73q-3-2.64-3-8.15V295.78h4.11v15.53a9.65,9.65,0,0,0,.84,4.51,4.18,4.18,0,0,0,2.09,2,8.09,8.09,0,0,0,2.9.48,5.8,5.8,0,0,0,5-2.33,10.07,10.07,0,0,0,1.73-6.12Z"/><path class="cls-1" d="M281.13,318.1h11.12v1.83H277V295.78h4.15Z"/><path class="cls-1" d="M291.85,295.78h18.61v1.83h-7.23v22.32h-4.15V297.61h-7.23Z"/><path class="cls-1" d="M315.2,295.78h4.14v24.15H315.2Z"/><path class="cls-1" d="M344.49,295.78v24.15h-1.84l-15.19-17.77v17.77h-1.84V295.78h1.84l15.23,17.8v-17.8Z"/><path class="cls-1" d="M370.77,308.26v11.67h-8.95a12.26,12.26,0,0,1-6.15-1.59,12,12,0,0,1-4.45-4.37,12.31,12.31,0,0,1,0-12.28,12.28,12.28,0,0,1,4.46-4.48,11.86,11.86,0,0,1,6.12-1.65,11.68,11.68,0,0,1,4.86,1,13.11,13.11,0,0,1,4.06,2.82l-1.22,1.25a9.88,9.88,0,0,0-3.48-2.42,10.75,10.75,0,0,0-4.22-.85,6.84,6.84,0,0,0-5.95,2.76q-2,2.75-2,7.71t2,7.56a6.94,6.94,0,0,0,5.91,2.68h4.8v-8H360.9v-1.83Z"/><path class="cls-1" d="M395.22,320.15a10.82,10.82,0,0,1-4.57-1,9.15,9.15,0,0,1-3.65-3.05l1.21-1.36a8.46,8.46,0,0,0,7,3.6,6.56,6.56,0,0,0,4-1.14,3.37,3.37,0,0,0,1.52-2.75,2.75,2.75,0,0,0-.68-1.89,6.62,6.62,0,0,0-1.92-1.46c-.83-.44-2.05-1-3.64-1.68a34,34,0,0,1-4.27-2.11,7.47,7.47,0,0,1-2.42-2.21,5,5,0,0,1-.83-2.92,5.73,5.73,0,0,1,1.12-3.52,7,7,0,0,1,3-2.29,10.35,10.35,0,0,1,4.06-.79,10.06,10.06,0,0,1,4.69,1.14,6.84,6.84,0,0,1,3.16,3.08l-1.21,1.36a6.18,6.18,0,0,0-2.7-2.77,8.22,8.22,0,0,0-3.94-1,7,7,0,0,0-2.78.5,4.15,4.15,0,0,0-1.74,1.27,2.62,2.62,0,0,0-.59,1.61,2.83,2.83,0,0,0,.53,1.76,4.77,4.77,0,0,0,1.47,1.23,31.62,31.62,0,0,0,2.88,1.38l1.87.84a20.61,20.61,0,0,1,5.27,3.23,5.1,5.1,0,0,1,1.71,3.89,6.34,6.34,0,0,1-1.05,3.58,7.15,7.15,0,0,1-3,2.54A10.41,10.41,0,0,1,395.22,320.15Z"/><path class="cls-1" d="M409,295.78h15.27v1.83H413.13v9.33h8.37v1.83h-8.37v9.33h11.13v1.83H409Z"/><path class="cls-1" d="M448,319.93h-4.22l-1.07-5.17q-1.1-5.25-4.52-5.25h-4.62v10.42h-4.15V295.78h9.29a13.55,13.55,0,0,1,4,.53,8.09,8.09,0,0,1,2.88,1.6,7.39,7.39,0,0,1,1.73,2.24,5.66,5.66,0,0,1,0,5,7.51,7.51,0,0,1-1.73,2.24,7.1,7.1,0,0,1-2.61,1.5,6.48,6.48,0,0,1,2.41,1.8,6,6,0,0,1,1.23,2.61Zm-14.43-12.26h5q2.89,0,4.05-1.59a5.67,5.67,0,0,0,0-6.87c-.77-1.07-2.12-1.6-4.05-1.6h-5Z"/><path class="cls-1" d="M473,295.78l-11.2,24.37-10.64-24.37h4.51l7.49,17.07L471,295.78Z"/><path class="cls-1" d="M477.56,295.78h4.14v24.15h-4.14Z"/><path class="cls-1" d="M503.64,317.33a10.32,10.32,0,0,0,3.65-2.79l1.21,1.32a12.48,12.48,0,0,1-4.19,3.15,12.15,12.15,0,0,1-11.25-.51,12.26,12.26,0,0,1-4.45-4.48,12.28,12.28,0,0,1,0-12.33,12.26,12.26,0,0,1,4.45-4.48,12.13,12.13,0,0,1,11-.62,12.69,12.69,0,0,1,4,2.82l-1.18,1.29a10.08,10.08,0,0,0-3.51-2.44,10.64,10.64,0,0,0-4.23-.87,6.84,6.84,0,0,0-5.95,2.76c-1.32,1.83-2,4.4-2,7.71s.68,5.84,2,7.69a6.86,6.86,0,0,0,5.91,2.77A10.57,10.57,0,0,0,503.64,317.33Z"/><path class="cls-1" d="M513.35,295.78h15.27v1.83H517.49v9.33h8.37v1.83h-8.37v9.33h11.13v1.83H513.35Z"/><path class="cls-1" d="M540.87,320.15a10.86,10.86,0,0,1-4.57-1,9.29,9.29,0,0,1-3.65-3.05l1.21-1.36a8.48,8.48,0,0,0,7,3.6,6.52,6.52,0,0,0,4-1.14,3.36,3.36,0,0,0,1.53-2.75,2.79,2.79,0,0,0-.68-1.89,6.68,6.68,0,0,0-1.93-1.46q-1.24-.66-3.63-1.68a34.18,34.18,0,0,1-4.28-2.11,7.69,7.69,0,0,1-2.42-2.21,5.11,5.11,0,0,1-.83-2.92,5.73,5.73,0,0,1,1.12-3.52,7,7,0,0,1,3-2.29,10.35,10.35,0,0,1,4.06-.79,10,10,0,0,1,4.69,1.14,6.84,6.84,0,0,1,3.16,3.08l-1.21,1.36a6.18,6.18,0,0,0-2.7-2.77,8.19,8.19,0,0,0-3.94-1,7,7,0,0,0-2.77.5,4.12,4.12,0,0,0-1.75,1.27,2.61,2.61,0,0,0-.58,1.61,2.77,2.77,0,0,0,.53,1.76,4.55,4.55,0,0,0,1.47,1.23,29.17,29.17,0,0,0,2.88,1.38l1.87.84a21,21,0,0,1,5.27,3.23,5.09,5.09,0,0,1,1.7,3.89,6.42,6.42,0,0,1-1,3.58,7.28,7.28,0,0,1-3,2.54A10.49,10.49,0,0,1,540.87,320.15Z"/><path class="cls-1" d="M9.74,264.25H35.86V266H0V209.26H9.74Z"/><path class="cls-1" d="M44.4,209.26h9.74V266H44.4Z"/><path class="cls-1" d="M111.65,238.56V266h-21a28.72,28.72,0,0,1-14.44-3.75A28,28,0,0,1,65.75,252a27.68,27.68,0,0,1-3.83-14.35,28.16,28.16,0,0,1,3.88-14.48,28.83,28.83,0,0,1,10.47-10.51,27.75,27.75,0,0,1,14.35-3.88A28,28,0,0,1,102,211.11a28.84,28.84,0,0,1,9.44,6.68l-1.12,1.29a26.27,26.27,0,0,0-19.74-8.62A15.42,15.42,0,0,0,81,213.65a21.14,21.14,0,0,0-6.59,8.49q-2.28,5.22-2.28,15.47a48.15,48.15,0,0,0,1.16,11.6,21.51,21.51,0,0,0,3,7.11A22.36,22.36,0,0,0,81,261.06a15.89,15.89,0,0,0,9.66,3.19h11.29v-24H88.46v-1.73Z"/><path class="cls-1" d="M157.88,209.26h9.74V266h-9.74V238.56h-24V266H124.1V209.26h9.74v27.58h24Z"/><path class="cls-1" d="M217.46,209.26V211h-17v55h-9.74V211h-17v-1.72Z"/><path class="cls-1" d="M488,266.49l-25-57.23h10.68l18.88,43.26,19.82-43.26h1.9Z"/><path class="cls-1" d="M532.45,208.52l25,57.23H546.76l-18.88-43.27-19.82,43.27h-1.9Z"/><path class="cls-1" d="M606,209.26h1.64v33.52a31.28,31.28,0,0,1-2.11,11.55,19.09,19.09,0,0,1-6.94,8.75q-4.83,3.41-12.59,3.41-9,0-14.56-5-7.16-6.3-7.16-19.14V209.26H574v38.18q0,10.08,3.92,13.7a13.82,13.82,0,0,0,9.78,3.62,16.64,16.64,0,0,0,10.17-3.06,18.41,18.41,0,0,0,6.17-8.06,28.83,28.83,0,0,0,2-10.86Z"/><path class="cls-1" d="M628.61,264.25h26.12V266H618.87V209.26h9.74Z"/><path class="cls-1" d="M701.79,209.26V211h-17v55h-9.74V211h-17v-1.72Z"/><polygon class="cls-1" points="314.11 209.26 304.37 209.26 304.37 265.97 340.23 265.97 340.23 264.25 314.11 264.25 314.11 209.26"/><path class="cls-1" d="M388.15,242.78a28.63,28.63,0,0,1-2,10.86A18.34,18.34,0,0,1,380,261.7a16.64,16.64,0,0,1-10.17,3.06,13.82,13.82,0,0,1-9.78-3.62q-3.92-3.61-3.92-13.7V209.26h-9.66v33.09q0,12.85,7.16,19.14,5.6,5,14.56,5,7.77,0,12.59-3.41a19.09,19.09,0,0,0,6.94-8.75,31.28,31.28,0,0,0,2.11-11.55V209.26h-1.64Z"/><polygon class="cls-1" points="435.99 210.98 435.99 209.26 400.13 209.26 400.13 265.97 435.99 265.97 435.99 264.25 409.87 264.25 409.87 238.47 429.52 238.47 429.52 236.75 409.87 236.75 409.87 210.98 435.99 210.98"/><path class="cls-1" d="M282.48,235.18A15.57,15.57,0,0,0,288,222.72a12.1,12.1,0,0,0-1.47-5.83,15,15,0,0,0-3.78-4.58,17.51,17.51,0,0,0-5.87-2.71,29.05,29.05,0,0,0-7.83-1h-7.23v1.78h7.23a8,8,0,0,1,6.87,3.91c1.51,2.4,2,5,2,8.46a15.49,15.49,0,0,1-2.54,8.68c-3.59,5.53-12.67,9.15-12.67,9.15v1.78s11.81-7.22,17.26-1.77a13.56,13.56,0,0,1,3.73,9.93,18.38,18.38,0,0,1-3,10.33q-3,4.53-9.48,4.54l-12.47-.06V208.56H248.74v58.58h22.63a32.35,32.35,0,0,0,9.75-1.29,19.27,19.27,0,0,0,7-3.88,17.61,17.61,0,0,0,4.18-5.43,13.67,13.67,0,0,0,1.43-6.05,14.79,14.79,0,0,0-3-9A19.64,19.64,0,0,0,282.48,235.18Z"/></g></g></svg>