<svg xmlns="http://www.w3.org/2000/svg" xmlns:xlink="http://www.w3.org/1999/xlink" viewBox="0 0 247.7 113"><defs><style>.cls-1{fill:url(#Degradado_sin_nombre_7);}.cls-2{fill:#3a8a4d;}.cls-3{fill:#4e4d4d;}</style><linearGradient id="Degradado_sin_nombre_7" x1="120.12" y1="-2.39" x2="120.12" y2="57.96" gradientUnits="userSpaceOnUse"><stop offset="0" stop-color="#d3dd74"/><stop offset="0.13" stop-color="#c8d771"/><stop offset="0.35" stop-color="#acc86a"/><stop offset="0.64" stop-color="#7dae5e"/><stop offset="0.98" stop-color="#3d8b4e"/><stop offset="1" stop-color="#3a8a4d"/></linearGradient></defs><title>logolanding</title><g id="Capa_2" data-name="Capa 2"><g id="Capa_1-2" data-name="Capa 1"><path class="cls-1" d="M115.09,53.14a60.53,60.53,0,0,0,10.07-14.2V8.05l-10.07,7.07Zm0,4.17v8.16h10.07V46.62A53.31,53.31,0,0,1,115.09,57.31ZM133.91,0l-5.27,4.34V31.12A85.6,85.6,0,0,0,133.91,0ZM101.53,62.94a43.84,43.84,0,0,0,10.08-6.52V20l-10.08,5.87ZM128.64,41.2V65.47h10.07V4C138.24,18,134.58,30.85,128.64,41.2ZM101.53,65.47h10.08V59.82a40.53,40.53,0,0,1-10.08,4.75Z"/><path class="cls-2" d="M59.65,112a3.57,3.57,0,0,0,1.29-1l.43.46a4.5,4.5,0,0,1-1.48,1.12,4.3,4.3,0,0,1-4-.18,4.33,4.33,0,0,1-1.57-1.58,4.32,4.32,0,0,1,0-4.36,4.33,4.33,0,0,1,1.57-1.58,4.17,4.17,0,0,1,2.16-.58,4.21,4.21,0,0,1,1.72.36,4.61,4.61,0,0,1,1.43,1l-.42.45a3.5,3.5,0,0,0-1.24-.86,3.81,3.81,0,0,0-1.49-.3,2.41,2.41,0,0,0-2.1,1,5.58,5.58,0,0,0,0,5.43,2.41,2.41,0,0,0,2.09,1A3.6,3.6,0,0,0,59.65,112Z"/><path class="cls-2" d="M68.94,104.91a4.38,4.38,0,0,1,1.58,1.59,4.31,4.31,0,0,1,0,4.32,4.38,4.38,0,0,1-1.58,1.59,4.26,4.26,0,0,1-4.31,0,4.43,4.43,0,0,1-1.58-1.58,4.39,4.39,0,0,1,0-4.36,4.43,4.43,0,0,1,1.58-1.58,4.26,4.26,0,0,1,4.31,0Zm-.07,1a2.75,2.75,0,0,0-4.18,0,4.56,4.56,0,0,0-.7,2.72,4.48,4.48,0,0,0,.71,2.71,2.7,2.7,0,0,0,4.16,0,4.52,4.52,0,0,0,.71-2.71A4.59,4.59,0,0,0,68.87,105.93Z"/><path class="cls-2" d="M79.46,104.4v8.52h-.65l-5.36-6.27v6.27H72.8V104.4h.65l5.37,6.28V104.4Z"/><path class="cls-2" d="M84.32,113a3.82,3.82,0,0,1-1.62-.36,3.21,3.21,0,0,1-1.29-1.08l.43-.48a3,3,0,0,0,2.48,1.27,2.29,2.29,0,0,0,1.41-.4,1.18,1.18,0,0,0,.54-1,1,1,0,0,0-.24-.67,2.56,2.56,0,0,0-.68-.51c-.29-.16-.72-.35-1.28-.6a10.66,10.66,0,0,1-1.51-.74,2.74,2.74,0,0,1-.86-.78,1.83,1.83,0,0,1-.29-1,2,2,0,0,1,.4-1.24,2.4,2.4,0,0,1,1.06-.81,3.61,3.61,0,0,1,1.43-.28,3.54,3.54,0,0,1,1.66.4,2.47,2.47,0,0,1,1.12,1.09l-.43.48a2.22,2.22,0,0,0-1-1A2.86,2.86,0,0,0,84.3,105a2.64,2.64,0,0,0-1,.17,1.54,1.54,0,0,0-.61.45.91.91,0,0,0-.21.57,1,1,0,0,0,.19.62,1.64,1.64,0,0,0,.52.44c.22.12.56.28,1,.48l.67.3a7.46,7.46,0,0,1,1.85,1.14,1.77,1.77,0,0,1,.61,1.37,2.33,2.33,0,0,1-.37,1.27,2.6,2.6,0,0,1-1.06.89A3.66,3.66,0,0,1,84.32,113Z"/><path class="cls-2" d="M95,104.4h.65v5a4.48,4.48,0,0,1-.32,1.73,2.82,2.82,0,0,1-1.05,1.32,3.22,3.22,0,0,1-1.89.51,4.75,4.75,0,0,1-1.11-.14,2.69,2.69,0,0,1-1.08-.61,3.63,3.63,0,0,1-1.07-2.88v-5h1.45v5.48a3.35,3.35,0,0,0,.3,1.59,1.48,1.48,0,0,0,.74.71,2.7,2.7,0,0,0,1,.17,2,2,0,0,0,1.75-.82,3.52,3.52,0,0,0,.61-2.16Z"/><path class="cls-2" d="M99.23,112.28h3.92v.64H97.76V104.4h1.47Z"/><path class="cls-2" d="M103,104.4h6.57v.65H107v7.87h-1.47v-7.87H103Z"/><path class="cls-2" d="M111.25,104.4h1.46v8.52h-1.46Z"/><path class="cls-2" d="M121.59,104.4v8.52h-.65l-5.36-6.27v6.27h-.65V104.4h.65l5.38,6.28V104.4Z"/><path class="cls-2" d="M130.87,108.8v4.12h-3.16a4.36,4.36,0,0,1-2.17-.56,4.22,4.22,0,0,1-1.57-1.54,4.11,4.11,0,0,1-.58-2.16,4.34,4.34,0,0,1,.58-2.18,4.43,4.43,0,0,1,1.58-1.58,4.28,4.28,0,0,1,3.87-.22,4.61,4.61,0,0,1,1.43,1l-.42.44a3.65,3.65,0,0,0-1.23-.86,4,4,0,0,0-1.49-.29,2.4,2.4,0,0,0-2.1,1,4.56,4.56,0,0,0-.7,2.72,4.33,4.33,0,0,0,.71,2.67,2.45,2.45,0,0,0,2.09,1h1.69v-2.83h-2v-.65Z"/><path class="cls-2" d="M139.5,113a3.82,3.82,0,0,1-1.62-.36,3.21,3.21,0,0,1-1.29-1.08l.43-.48a3,3,0,0,0,2.48,1.27,2.27,2.27,0,0,0,1.41-.4,1.18,1.18,0,0,0,.54-1,1,1,0,0,0-.24-.67,2.41,2.41,0,0,0-.68-.51c-.29-.16-.72-.35-1.28-.6a11.23,11.23,0,0,1-1.51-.74,2.59,2.59,0,0,1-.85-.78,1.76,1.76,0,0,1-.3-1,2,2,0,0,1,.4-1.24,2.4,2.4,0,0,1,1.06-.81,3.61,3.61,0,0,1,1.43-.28,3.54,3.54,0,0,1,1.66.4,2.47,2.47,0,0,1,1.12,1.09l-.43.48a2.25,2.25,0,0,0-1-1,2.93,2.93,0,0,0-1.4-.34,2.55,2.55,0,0,0-1,.17,1.51,1.51,0,0,0-.62.45.91.91,0,0,0-.21.57,1,1,0,0,0,.19.62,1.76,1.76,0,0,0,.52.44c.22.12.56.28,1,.48l.67.3a7.46,7.46,0,0,1,1.85,1.14,1.77,1.77,0,0,1,.61,1.37,2.33,2.33,0,0,1-.37,1.27,2.6,2.6,0,0,1-1.06.89A3.63,3.63,0,0,1,139.5,113Z"/><path class="cls-2" d="M144.36,104.4h5.39v.65h-3.93v3.29h3V109h-3v3.3h3.93v.64h-5.39Z"/><path class="cls-2" d="M158.13,112.92h-1.49l-.38-1.82q-.39-1.86-1.59-1.86H153v3.68h-1.46V104.4h3.28a5,5,0,0,1,1.42.18,3,3,0,0,1,1,.57,2.48,2.48,0,0,1,.6.79,1.95,1.95,0,0,1,0,1.76,2.48,2.48,0,0,1-.6.79,2.57,2.57,0,0,1-.92.53,2.35,2.35,0,0,1,.84.64,2.07,2.07,0,0,1,.44.92ZM153,108.6h1.78a1.64,1.64,0,0,0,1.43-.57,2,2,0,0,0,0-2.42,1.64,1.64,0,0,0-1.43-.56H153Z"/><path class="cls-2" d="M166.94,104.4,163,113l-3.76-8.6h1.59l2.65,6,2.76-6Z"/><path class="cls-2" d="M168.56,104.4H170v8.52h-1.46Z"/><path class="cls-2" d="M177.76,112a3.57,3.57,0,0,0,1.29-1l.43.46A4.5,4.5,0,0,1,178,112.6a4.3,4.3,0,0,1-4-.18,4.4,4.4,0,0,1-1.57-1.58,4.32,4.32,0,0,1,0-4.36A4.4,4.4,0,0,1,174,104.9a4.17,4.17,0,0,1,2.16-.58,4.21,4.21,0,0,1,1.72.36,4.5,4.5,0,0,1,1.43,1l-.42.45a3.5,3.5,0,0,0-1.24-.86,3.78,3.78,0,0,0-1.49-.3,2.41,2.41,0,0,0-2.1,1,5.58,5.58,0,0,0,0,5.43,2.41,2.41,0,0,0,2.09,1A3.6,3.6,0,0,0,177.76,112Z"/><path class="cls-2" d="M181.19,104.4h5.39v.65h-3.93v3.29h3V109h-3v3.3h3.93v.64h-5.39Z"/><path class="cls-2" d="M190.91,113a3.82,3.82,0,0,1-1.62-.36,3.21,3.21,0,0,1-1.29-1.08l.43-.48a3,3,0,0,0,2.48,1.27,2.27,2.27,0,0,0,1.41-.4,1.18,1.18,0,0,0,.54-1,1,1,0,0,0-.24-.67,2.41,2.41,0,0,0-.68-.51c-.29-.16-.72-.35-1.28-.6a11.23,11.23,0,0,1-1.51-.74,2.74,2.74,0,0,1-.86-.78,1.83,1.83,0,0,1-.29-1,2,2,0,0,1,.4-1.24,2.4,2.4,0,0,1,1.06-.81,3.61,3.61,0,0,1,1.43-.28,3.54,3.54,0,0,1,1.66.4,2.47,2.47,0,0,1,1.12,1.09l-.43.48a2.25,2.25,0,0,0-1-1,2.93,2.93,0,0,0-1.4-.34,2.64,2.64,0,0,0-1,.17,1.54,1.54,0,0,0-.61.45.91.91,0,0,0-.21.57,1,1,0,0,0,.19.62,1.76,1.76,0,0,0,.52.44c.22.12.56.28,1,.48l.67.3a7.46,7.46,0,0,1,1.85,1.14,1.77,1.77,0,0,1,.61,1.37,2.33,2.33,0,0,1-.37,1.27,2.6,2.6,0,0,1-1.06.89A3.63,3.63,0,0,1,190.91,113Z"/><path class="cls-3" d="M3.44,93.27h9.22v.61H0v-20H3.44Z"/><path class="cls-3" d="M15.67,73.86h3.44v20H15.67Z"/><path class="cls-3" d="M39.41,84.2v9.68H32a10,10,0,0,1-5.09-1.33,9.91,9.91,0,0,1-5-8.68,10,10,0,0,1,1.37-5.11,10.2,10.2,0,0,1,3.7-3.71A9.74,9.74,0,0,1,32,73.68a10.07,10.07,0,0,1,4,.83,10.37,10.37,0,0,1,3.33,2.36l-.4.46a9.27,9.27,0,0,0-7-3,5.42,5.42,0,0,0-3.4,1.13,7.4,7.4,0,0,0-2.33,3,14.11,14.11,0,0,0-.81,5.46A17.08,17.08,0,0,0,25.85,88a7.66,7.66,0,0,0,1.07,2.51,7.5,7.5,0,0,0,1.66,1.67A5.58,5.58,0,0,0,32,93.27h4V84.81H31.22V84.2Z"/><path class="cls-3" d="M55.73,73.86h3.43v20H55.73V84.2H47.24v9.68H43.8v-20h3.44v9.73h8.49Z"/><path class="cls-3" d="M76.75,73.86v.61h-6V93.88H67.32V74.47h-6v-.61Z"/><path class="cls-3" d="M172.26,94.06l-8.82-20.2h3.77l6.66,15.27,7-15.27h.67Z"/><path class="cls-3" d="M187.93,73.6l8.82,20.2H193l-6.66-15.27-7,15.27h-.67Z"/><path class="cls-3" d="M213.9,73.86h.57V85.69a11,11,0,0,1-.74,4.08,6.73,6.73,0,0,1-2.45,3.09,7.56,7.56,0,0,1-4.44,1.2,7.42,7.42,0,0,1-5.14-1.77q-2.53-2.22-2.53-6.75V73.86h3.41V87.34q0,3.55,1.38,4.83a4.93,4.93,0,0,0,3.46,1.28A5.88,5.88,0,0,0,211,92.37a6.55,6.55,0,0,0,2.17-2.84,10.09,10.09,0,0,0,.72-3.84Z"/><path class="cls-3" d="M221.87,93.27h9.22v.61H218.44v-20h3.43Z"/><path class="cls-3" d="M247.7,73.86v.61h-6V93.88h-3.44V74.47h-6v-.61Z"/><polygon class="cls-3" points="110.87 73.86 107.43 73.86 107.43 93.88 120.09 93.88 120.09 93.27 110.87 93.27 110.87 73.86"/><path class="cls-3" d="M137,85.69a10.29,10.29,0,0,1-.71,3.84,6.57,6.57,0,0,1-2.18,2.84,5.86,5.86,0,0,1-3.59,1.08,4.89,4.89,0,0,1-3.45-1.28c-.92-.85-1.39-2.46-1.39-4.83V73.86h-3.4V85.54q0,4.53,2.52,6.75a7.42,7.42,0,0,0,5.14,1.77,7.52,7.52,0,0,0,4.44-1.2,6.67,6.67,0,0,0,2.45-3.09,11,11,0,0,0,.75-4.08V73.86H137Z"/><polygon class="cls-3" points="153.88 74.47 153.88 73.86 141.23 73.86 141.23 93.88 153.88 93.88 153.88 93.27 144.67 93.27 144.67 84.17 151.6 84.17 151.6 83.56 144.67 83.56 144.67 74.47 153.88 74.47"/><path class="cls-3" d="M99.71,83a5.53,5.53,0,0,0,1.94-4.4,4.23,4.23,0,0,0-.52-2.06,5.33,5.33,0,0,0-1.33-1.61,6.13,6.13,0,0,0-2.07-1A10.25,10.25,0,0,0,95,73.62H92.41v.63H95a2.84,2.84,0,0,1,2.43,1.38,5.3,5.3,0,0,1,.71,3,5.53,5.53,0,0,1-.89,3.07c-1.27,1.94-4.48,3.22-4.48,3.22v.63s4.17-2.55,6.1-.62a4.77,4.77,0,0,1,1.32,3.5,6.53,6.53,0,0,1-1.06,3.65,3.69,3.69,0,0,1-3.34,1.6l-4.4,0v-20H87.79V94.29h8a11.19,11.19,0,0,0,3.44-.46,6.85,6.85,0,0,0,2.46-1.36,6.28,6.28,0,0,0,1.48-1.92,4.76,4.76,0,0,0,.5-2.14,5.21,5.21,0,0,0-1.06-3.17A7,7,0,0,0,99.71,83Z"/></g></g></svg>