<svg xmlns="http://www.w3.org/2000/svg" viewBox="0 0 16.74 16.74"><defs><style>.cls-1{fill:#fff;fill-rule:evenodd;}</style></defs><title>whatsapp</title><g id="Capa_2" data-name="Capa 2"><g id="Capa_1-2" data-name="Capa 1"><path class="cls-1" d="M16.73,8A8.22,8.22,0,0,0,.31,7.8c0,.12,0,.24,0,.35a8.07,8.07,0,0,0,1.18,4.22L0,16.74l4.55-1.45A8.22,8.22,0,0,0,16.74,8.15,1.41,1.41,0,0,0,16.73,8ZM8.52,15a6.88,6.88,0,0,1-3.8-1.14l-2.65.85.86-2.55a6.75,6.75,0,0,1-1.32-4,4.87,4.87,0,0,1,0-.66,6.91,6.91,0,0,1,13.76.13c0,.18,0,.35,0,.53A6.89,6.89,0,0,1,8.52,15Z"/><path class="cls-1" d="M12.29,9.8c-.21-.1-1.2-.58-1.38-.65s-.32-.1-.45.1-.53.65-.64.78-.24.15-.44.05a5.53,5.53,0,0,1-1.62-1A5.79,5.79,0,0,1,6.64,7.71c-.12-.2,0-.31.09-.41s.2-.23.3-.35a.36.36,0,0,0,.07-.1,1.26,1.26,0,0,0,.13-.23.36.36,0,0,0,0-.35c0-.1-.46-1.09-.63-1.49s-.33-.33-.45-.33l-.39,0a.73.73,0,0,0-.53.25,2.23,2.23,0,0,0-.71,1.67A2.25,2.25,0,0,0,4.62,7a4.35,4.35,0,0,0,.72,1.39,8.32,8.32,0,0,0,3.43,3c2.05.79,2.05.53,2.42.49A2,2,0,0,0,12.55,11a1.65,1.65,0,0,0,.12-1C12.62,10,12.49,9.9,12.29,9.8Z"/></g></g></svg>